<svg xmlns="http://www.w3.org/2000/svg"  viewBox="0 0 48 48" width="48px" height="48px"><path fill="#ffba57" d="M29.994,26C32.259,24.285,34,23,36,23s4.197,1.197,7,4c-0.02,1.408-0.007,2.667,0,4 c0.004,0.813,0.007,1.732-0.003,2.5C42.913,39.523,42.085,44,36,44c-1.992-3-1.026-4-3.018-4s-2.299,1.754-7.968,2 c-0.169,0.007,0.16-0.001-0.015,0c-0.124,0.001-0.873,0.003-1,0c-3.286-0.069-7.291-1.254-10.938-4c-2.783-2.096-7.968-7-8.964-9 c-0.389-0.781,0.376-4.691,2.388-9.203C9.532,12.969,12.034,10.133,13.87,8c2.829-2.877,5.168-4,6.164-4s6.936,1.01,7.908,2 c0.996,1,0.763,1.527,0.996,3c0.036,0.228,0.056,0.434,0.061,0.625c0.028,1.041-0.375,1.587-0.792,2.352 c-0.171,0.313-0.716,0.936-1.193,0.521c-0.273,0.485-1.329,0.795-1.721,0.122c-0.375,0.623-1.432,0.346-1.67-0.101 c-0.375,0.59-1.193-0.068-1.45-0.328c-0.186-0.189-0.423-0.469-0.578-0.764C21.559,11.392,21.023,10.106,21.5,10 c-1.006,0.223-1.265,0.157-1.972,0.877C18.821,11.596,17,13,17,17c0,3-0.95,6.001-1.946,7.001c0,0,0.996,0,1.992,0 C20.5,26,23.125,26,29.994,26z"/><path fill="#f9a825" d="M25.014,42c0.334-0.015,0.647-0.035,0.946-0.059c0.181-0.015,0.348-0.034,0.517-0.052 c0.1-0.011,0.205-0.02,0.301-0.032c0.22-0.027,0.428-0.058,0.627-0.09c0.028-0.004,0.058-0.008,0.085-0.013 c0.222-0.037,0.432-0.077,0.631-0.119c1.391-0.295,2.219-0.701,2.895-1.035c0.306-0.153,0.583-0.288,0.864-0.393l0.001,0 c0.023-0.008,0.046-0.017,0.068-0.026c0.143-0.05,0.29-0.09,0.442-0.12l0,0c0.036-0.007,0.074-0.013,0.11-0.019h0 C32.654,40.017,32.81,40,32.982,40c1.992,0,1.026,1,3.018,4c0.396,0,0.764-0.022,1.108-0.057c1.522-0.159,2.644-0.664,3.483-1.435 c-0.769-0.575-4.218-3.293-5.216-6.508c0.001,0,0.003,0,0.004,0c-0.004-0.004-0.006-0.011-0.01-0.016 c-0.044-0.139-0.105-0.271-0.175-0.399c-0.284-1.16-0.024-4.04-1.819-5.836C31.75,28.125,29.994,26,29.994,26 c-5.89-5.913-10.204-3.995-12.83-2.083C17.14,23.968,17.125,24,17.125,24h-0.077c0,0-0.001,0.001-0.001,0.001 c-0.996,0-1.992,0-1.992,0c-0.008,0.011-3.059,3.999-6.776,3.986C8.099,27.545,8.004,27.201,8,27 c-0.055-2.627,1.454-6.646,3.07-10.5c2.16-5.152,2.921-8.354,4.878-10.387c-0.291,0.234-0.595,0.494-0.902,0.77 c-0.039,0.035-0.075,0.063-0.115,0.098C14.587,7.293,14.233,7.631,13.87,8c-1.836,2.133-4.338,4.969-7.383,11.797 C4.474,24.309,3.709,28.219,4.098,29c0.996,2,6.181,6.904,8.964,9c0.442,0.333,0.892,0.634,1.346,0.922 c0.152,0.096,0.303,0.186,0.456,0.277c0.306,0.182,0.613,0.355,0.922,0.518c0.177,0.094,0.352,0.19,0.529,0.278 c0.408,0.201,0.817,0.389,1.226,0.558c0,0,0.001,0,0.001,0c1.792,0.742,3.572,1.18,5.207,1.359c0.296,0.032,0.588,0.056,0.873,0.072 C23.877,41.998,23.754,41.997,24,42c0.107,0.001,0.803-0.001,1,0C25.204,42.001,24.908,42.005,25.014,42z"/><path fill="#ff754c" d="M15.625,34c-3.25-2-9.151-2.001-9.151-2.001c2.023,2.15,4.801,4.655,6.589,6.001 c3.024,2.277,6.381,3.487,9.313,3.873C23.069,41.965,23.364,41.998,24,42c0.217,0.001,0.806,0.009,1.014,0 c5.669-0.246,5.976-2,7.968-2c0.774,0,1.096,0.154,1.318,0.515c-0.018-0.047-0.036-0.094-0.051-0.14c-0.875-2.75-5.25-3.25-9-3.25 C23.875,37.125,18.968,36.057,15.625,34z"/><path fill="#ffba57" d="M16.999,24c0,0-0.999,0.883-0.999,3.75c0,3.25,3.202,4.769,6.125,5.875C26.75,35.375,33,35,33,35 s0.076-2.351-1.125-4.125C30.875,29.398,30,26,30,26c-4.912-4.931-8.732-4.416-11.388-3C18.176,23.232,16.999,24,16.999,24z"/></svg>
